{"glyphs":{":":{"x_min":0,"x_max":175,"ha":175,"o":"m 52 283 q 52 297 62 306 q 72 316 85 316 q 98 316 108 306 q 117 297 117 283 q 117 269 108 260 q 98 250 85 250 q 72 250 62 260 q 52 269 52 283 z m 52 33 q 52 47 62 56 q 72 66 85 66 q 98 66 108 56 q 117 47 117 33 q 117 19 108 10 q 98 0 85 0 q 72 0 62 10 q 52 19 52 33 z"},"$":{"x_min":0,"x_max":567,"ha":567,"o":"m 361 546 l 361 634 q 344 645 319 653 q 294 661 259 663 l 259 387 q 294 376 328 364 q 363 351 390 329 q 418 307 436 273 q 453 239 454 186 q 454 144 439 109 q 424 74 398 49 q 371 24 335 10 q 299 -5 259 -7 l 259 -68 l 218 -68 l 218 -6 q 183 -4 154 4 q 124 13 102 25 q 79 37 62 50 q 46 64 36 76 l 36 182 l 76 182 l 76 92 q 101 69 136 52 q 170 36 218 34 l 218 357 q 188 366 160 378 q 132 389 110 406 q 89 424 75 450 q 61 477 59 517 q 57 548 66 580 q 74 611 94 637 q 113 663 144 681 q 174 699 218 702 l 218 764 l 259 764 l 259 703 q 291 701 330 691 q 368 681 401 654 l 401 546 z m 412 184 q 412 224 399 251 q 386 278 364 296 q 343 313 316 324 q 288 335 259 344 l 259 34 q 289 37 317 48 q 345 60 366 79 q 387 98 400 124 q 412 151 412 184 z m 101 524 q 101 495 110 476 q 120 456 136 442 q 152 428 173 418 q 194 409 218 401 l 218 660 q 189 657 167 644 q 145 632 130 614 q 116 595 108 572 q 101 549 101 524 z"},"?":{"x_min":0,"x_max":452,"ha":452,"o":"m 72 578 q 63 582 54 585 q 44 588 35 591 q 44 617 60 642 q 76 667 100 687 q 123 707 154 720 q 186 732 226 732 q 267 732 303 716 q 339 701 366 674 q 392 648 407 612 q 422 577 422 537 q 422 483 396 442 q 369 400 324 368 q 307 355 290 345 q 274 335 261 322 q 248 310 240 291 q 232 272 232 242 l 232 164 l 190 164 l 190 261 q 190 292 201 312 q 212 331 230 346 q 247 361 270 374 q 292 388 316 408 q 349 435 364 468 q 380 500 380 537 q 380 570 368 598 q 357 626 336 647 q 315 668 287 680 q 259 691 226 691 q 168 691 128 661 q 89 631 72 578 z m 211 15 q 199 15 188 24 q 178 34 178 48 q 178 62 188 72 q 199 81 211 81 q 223 81 233 72 q 243 62 243 48 q 243 34 233 24 q 223 15 211 15 z"},"<":{"x_min":0,"x_max":680,"ha":680,"o":"m 553 40 l 553 -15 q 443 48 334 112 q 225 175 115 238 q 225 301 334 364 q 443 428 553 491 l 553 436 q 467 386 382 337 q 296 288 209 238 q 296 188 382 139 q 467 90 553 40 z"},"'":{"x_min":0,"x_max":153,"ha":153,"o":"m 57 472 l 57 720 l 101 720 q 100 657 99 596 q 98 535 97 472 z"},"=":{"x_min":0,"x_max":708,"ha":708,"o":"m 606 176 l 606 135 l 100 135 l 100 176 z m 606 370 l 606 329 l 100 329 l 100 370 z"},"a":{"x_min":0,"x_max":538,"ha":538,"o":"m 35 188 q 35 228 50 264 q 66 299 92 326 q 119 352 155 368 q 191 383 232 383 q 261 383 287 374 q 313 366 334 352 q 355 339 370 322 q 384 304 391 287 q 391 309 392 331 q 394 353 395 375 l 429 375 l 429 40 l 503 40 l 503 0 l 391 0 l 391 40 q 391 52 392 64 q 392 75 392 86 q 385 69 370 52 q 356 35 336 22 q 315 9 288 1 q 262 -7 232 -7 q 191 -7 155 8 q 119 24 92 50 q 66 76 50 112 q 35 147 35 188 z m 77 188 q 77 156 89 128 q 101 100 122 79 q 142 58 170 46 q 199 34 232 34 q 265 34 293 46 q 321 58 342 79 q 363 100 375 128 q 387 156 387 188 q 387 220 375 248 q 363 277 342 298 q 321 319 293 331 q 265 343 232 343 q 199 343 170 331 q 142 319 122 298 q 101 277 89 248 q 77 220 77 188 z"},"L":{"x_min":0,"x_max":568,"ha":568,"o":"m 35 40 l 104 40 l 104 660 l 35 660 l 35 700 l 228 700 l 228 660 l 145 660 l 145 40 l 493 40 l 493 154 l 533 154 l 533 0 l 35 0 z"},"3":{"x_min":0,"x_max":515,"ha":515,"o":"m 168 347 l 351 609 l 143 609 l 143 549 l 103 549 l 103 650 l 426 650 l 249 404 q 289 401 324 384 q 360 368 386 341 q 413 314 428 278 q 443 243 443 201 q 443 158 426 120 q 410 82 382 54 q 353 25 314 8 q 276 -8 233 -8 q 187 -8 148 10 q 108 29 79 60 l 110 91 q 132 65 163 49 q 194 33 231 33 q 266 33 297 46 q 328 60 351 83 q 374 106 388 136 q 401 167 401 201 q 401 235 388 266 q 374 296 351 319 q 328 342 297 355 q 266 368 231 368 q 214 368 198 362 q 182 357 168 347 z"},";":{"x_min":0,"x_max":201,"ha":201,"o":"m 78 283 q 78 297 88 306 q 98 316 111 316 q 124 316 134 306 q 144 297 144 283 q 144 269 134 260 q 124 250 111 250 q 98 250 88 260 q 78 269 78 283 z m 127 86 q 105 34 84 -17 q 63 -68 41 -120 l 2 -120 q 22 -68 40 -17 q 59 34 79 86 z"},"J":{"x_min":0,"x_max":277,"ha":277,"o":"m 35 700 l 242 700 l 242 90 q 242 34 226 -8 q 210 -51 182 -80 q 154 -110 116 -126 q 78 -142 35 -143 l 35 -103 q 71 -101 102 -87 q 132 -73 154 -48 q 176 -23 188 12 q 201 48 201 93 l 201 660 l 35 660 z"},"V":{"x_min":0,"x_max":830,"ha":830,"o":"m 35 700 l 236 700 l 236 660 l 162 660 q 222 516 282 374 q 343 232 404 89 l 413 61 l 422 89 q 482 232 542 374 q 603 516 663 660 l 594 660 l 594 700 l 795 700 l 795 660 l 706 660 q 633 486 560 314 q 486 142 413 -32 q 339 142 266 314 q 192 486 119 660 l 35 660 z"},"\"":{"x_min":0,"x_max":310,"ha":310,"o":"m 196 472 l 196 720 l 240 720 q 239 657 238 596 q 237 535 236 472 z m 63 472 l 63 720 l 107 720 q 106 657 105 596 q 104 535 103 472 z"},"7":{"x_min":0,"x_max":469,"ha":469,"o":"m 420 650 l 128 0 l 79 0 l 354 609 l 54 609 l 54 549 l 14 549 l 14 650 z"},"S":{"x_min":0,"x_max":478,"ha":478,"o":"m 36 76 l 36 182 l 76 182 l 76 92 q 104 67 144 50 q 184 32 239 32 q 272 32 304 42 q 335 53 359 72 q 383 92 398 120 q 412 148 412 184 q 412 228 397 256 q 382 284 358 302 q 334 320 303 331 q 272 342 240 352 q 207 361 176 372 q 144 383 118 401 q 93 419 77 446 q 61 474 59 517 q 57 550 67 584 q 77 617 99 644 q 121 670 156 687 q 191 704 241 704 q 258 704 278 702 q 298 700 319 695 q 340 690 361 680 q 382 670 401 654 l 401 546 l 361 546 l 361 634 q 342 646 312 655 q 281 664 240 664 q 205 664 179 652 q 153 641 136 622 q 118 602 110 576 q 101 551 101 524 q 101 488 116 465 q 131 442 156 427 q 180 412 212 402 q 243 392 276 382 q 309 372 340 358 q 372 345 397 324 q 422 302 438 269 q 453 236 454 186 q 454 142 438 106 q 421 70 392 44 q 364 19 325 6 q 286 -8 243 -8 q 204 -8 171 0 q 138 8 112 20 q 85 33 66 48 q 47 63 36 76 z"},"}":{"x_min":0,"x_max":320,"ha":320,"o":"m 290 321 l 290 275 q 261 273 246 256 q 230 238 222 214 q 214 189 212 162 q 211 136 211 118 l 211 -30 q 211 -77 203 -101 q 195 -125 181 -136 q 167 -146 149 -147 q 131 -148 112 -148 l 65 -148 l 65 -108 l 117 -108 q 148 -108 158 -84 q 169 -61 169 1 l 169 165 q 169 197 176 220 q 182 243 192 258 q 202 274 214 284 q 225 293 234 299 q 222 306 210 316 q 199 326 190 344 q 181 361 175 388 q 169 414 169 455 l 169 597 q 169 658 158 682 q 148 705 117 705 l 65 705 l 65 746 l 112 746 q 131 746 149 745 q 167 744 180 734 q 194 723 202 698 q 211 674 211 628 l 211 478 q 211 460 212 434 q 214 407 222 382 q 230 358 246 340 q 261 322 290 321 z"},"Z":{"x_min":0,"x_max":629,"ha":629,"o":"m 594 201 l 594 0 l 35 0 l 35 40 l 512 660 l 52 660 l 52 735 l 94 735 l 94 700 l 565 700 l 565 660 l 88 40 l 554 40 l 554 201 z"},"x":{"x_min":0,"x_max":503,"ha":503,"o":"m 35 375 l 228 375 l 228 335 l 166 335 l 255 214 l 342 335 l 284 335 l 284 375 l 468 375 l 468 335 l 392 335 l 280 181 q 306 145 332 110 q 358 75 384 40 l 468 40 l 468 0 l 275 0 l 275 40 l 332 40 q 310 70 288 100 q 267 129 246 158 q 224 129 203 99 q 182 69 161 40 l 219 40 l 219 0 l 35 0 l 35 40 l 109 40 l 220 193 q 194 228 168 264 q 141 299 115 335 l 35 335 z"},")":{"x_min":0,"x_max":400,"ha":400,"o":"m 292 290 q 292 215 278 147 q 264 79 241 21 q 218 -37 188 -84 q 158 -132 127 -165 q 119 -159 112 -154 q 104 -148 96 -142 q 125 -109 152 -64 q 180 -19 202 36 q 224 91 237 155 q 250 219 250 290 q 250 361 237 425 q 224 489 202 544 q 180 599 152 644 q 125 689 96 722 q 104 728 112 734 q 119 739 127 745 q 158 712 188 664 q 218 617 241 559 q 264 501 278 433 q 292 365 292 290 z"},"&":{"x_min":0,"x_max":700,"ha":700,"o":"m 457 375 l 601 375 l 601 334 l 499 334 l 499 266 q 500 230 499 188 q 498 146 480 108 l 545 3 l 513 -19 l 459 68 q 432 33 391 12 q 350 -8 302 -8 q 261 -8 226 8 q 190 23 164 49 q 137 75 122 110 q 106 146 106 187 q 106 223 118 256 q 130 288 152 314 q 174 339 204 356 q 233 373 268 379 l 197 496 q 179 526 172 558 q 164 590 169 621 q 174 652 192 679 q 210 706 243 726 q 271 743 300 746 q 330 750 358 745 q 386 740 410 729 q 435 718 454 706 l 437 672 q 419 682 398 692 q 378 701 356 706 q 335 710 313 708 q 291 706 270 693 q 216 659 210 608 q 204 557 234 508 l 443 168 q 457 193 457 223 z m 147 187 q 147 155 159 127 q 171 99 192 78 q 212 57 240 45 q 269 33 302 33 q 346 33 380 54 q 415 74 435 107 l 292 341 q 261 338 234 326 q 208 313 188 293 q 169 273 158 246 q 147 218 147 187 z"},"_":{"x_min":0,"x_max":600,"ha":600,"o":"m 500 0 l 100 0 l 100 41 l 500 41 z"},"v":{"x_min":0,"x_max":588,"ha":588,"o":"m 35 375 l 220 375 l 220 335 l 155 335 q 192 265 228 194 q 264 123 296 53 q 326 119 362 191 q 399 263 436 335 l 378 335 l 378 375 l 553 375 l 553 335 l 480 335 q 434 244 388 156 q 342 67 296 -23 q 249 67 204 156 q 158 244 112 335 l 35 335 z"},"O":{"x_min":0,"x_max":786,"ha":786,"o":"m 35 349 q 35 423 63 488 q 91 554 140 602 q 188 651 253 680 q 318 708 392 708 q 466 708 532 680 q 597 651 646 602 q 694 554 722 488 q 751 423 751 349 q 751 275 722 210 q 694 145 646 96 q 597 48 532 20 q 466 -8 392 -8 q 318 -8 253 20 q 188 48 140 96 q 91 145 63 210 q 35 275 35 349 z m 77 348 q 77 282 102 224 q 126 167 169 124 q 212 82 269 57 q 326 32 391 32 q 456 32 514 57 q 572 82 616 125 q 659 168 684 226 q 709 283 709 349 q 709 415 684 473 q 659 531 616 574 q 573 618 515 643 q 457 668 392 668 q 327 668 270 642 q 212 617 169 574 q 126 530 102 472 q 77 414 77 348 z"},"(":{"x_min":0,"x_max":406,"ha":406,"o":"m 134 292 q 134 367 148 435 q 162 503 185 561 q 208 619 238 666 q 267 714 299 747 q 307 741 314 736 q 322 730 330 724 q 301 691 274 646 q 246 601 224 546 q 202 491 189 427 q 176 363 176 292 q 176 221 189 157 q 202 93 224 38 q 246 -17 274 -62 q 301 -107 330 -140 q 322 -146 314 -152 q 307 -157 299 -163 q 267 -130 238 -82 q 208 -35 185 23 q 162 81 148 149 q 134 217 134 292 z"},"C":{"x_min":0,"x_max":610,"ha":610,"o":"m 535 546 l 535 632 q 503 649 466 658 q 430 668 392 668 q 327 668 270 642 q 212 617 169 574 q 126 530 102 472 q 77 414 77 348 q 77 283 102 226 q 126 168 169 125 q 212 82 268 57 q 325 32 390 32 q 435 32 475 44 q 515 55 551 76 l 574 42 q 534 19 488 6 q 443 -8 392 -8 q 318 -8 253 20 q 188 48 140 96 q 91 145 63 210 q 35 275 35 349 q 35 423 63 488 q 91 554 140 602 q 188 651 253 680 q 318 708 392 708 q 443 708 488 695 q 534 682 575 658 l 575 546 z"},"W":{"x_min":0,"x_max":1203,"ha":1203,"o":"m 35 700 l 236 700 l 236 660 l 162 660 q 222 516 282 374 q 341 232 404 89 l 413 61 q 446 161 491 260 q 536 359 578 457 q 557 508 536 558 q 514 609 492 660 l 408 660 l 408 700 l 609 700 l 609 660 l 534 660 q 594 516 654 374 q 714 232 776 89 l 785 61 l 794 89 q 855 232 916 374 q 976 516 1036 660 l 967 660 l 967 700 l 1168 700 l 1168 660 l 1078 660 q 1005 486 932 314 q 859 142 785 -32 l 608 385 l 599 412 q 559 301 509 189 q 459 77 413 -32 q 339 142 266 314 q 192 486 119 660 l 35 660 z"},"A":{"x_min":0,"x_max":812,"ha":812,"o":"m 35 40 l 112 40 q 186 214 260 386 q 333 558 406 732 q 479 558 552 386 q 626 214 699 40 l 777 40 l 777 0 l 584 0 l 584 40 l 657 40 q 629 105 602 170 q 575 234 547 300 l 265 300 q 237 234 210 170 q 183 105 155 40 l 228 40 l 228 0 l 35 0 z m 415 611 l 406 639 q 404 636 401 624 q 399 618 396 611 q 386 585 372 552 q 359 520 344 484 q 329 449 314 412 q 298 375 283 340 l 529 340 z"},"f":{"x_min":0,"x_max":303,"ha":303,"o":"m 35 40 l 96 40 l 96 334 l 35 334 l 35 375 l 96 375 l 96 518 q 96 573 112 616 q 128 659 156 688 q 184 717 222 732 q 260 748 303 750 l 303 710 q 269 709 238 696 q 208 683 186 658 q 163 633 150 598 q 137 563 137 519 l 137 375 l 262 375 l 262 334 l 137 334 l 137 40 l 228 40 l 228 0 l 35 0 z"},"Q":{"x_min":0,"x_max":808,"ha":808,"o":"m 77 348 q 77 283 102 226 q 126 168 169 125 q 212 82 268 57 q 325 32 390 32 q 456 32 514 57 q 572 82 616 125 q 659 168 684 226 q 709 283 709 349 q 709 415 684 473 q 659 531 616 574 q 573 618 515 643 q 457 668 392 668 q 327 668 270 642 q 212 617 169 574 q 126 530 102 472 q 77 414 77 348 z m 35 349 q 35 423 63 488 q 91 554 140 602 q 188 651 253 680 q 318 708 392 708 q 466 708 532 680 q 597 651 646 602 q 694 554 722 488 q 751 423 751 349 q 751 298 737 251 q 723 204 698 164 q 673 125 638 93 q 602 61 560 40 l 773 40 l 773 0 l 466 0 q 428 -8 392 -8 q 318 -8 253 20 q 188 48 140 96 q 91 145 63 210 q 35 275 35 349 z"},"w":{"x_min":0,"x_max":848,"ha":848,"o":"m 644 375 l 813 375 l 813 335 l 744 335 q 699 244 654 156 q 610 67 565 -23 l 429 249 l 293 -23 q 248 67 204 156 q 159 244 114 335 l 35 335 l 35 375 l 214 375 l 214 335 l 156 335 q 191 264 226 194 q 261 123 293 53 q 317 105 342 156 q 367 208 393 260 q 388 279 383 298 q 378 316 373 335 l 309 335 l 309 375 l 494 375 l 494 335 l 428 335 q 463 264 498 194 q 533 123 565 53 q 598 124 632 194 q 667 264 702 335 l 644 335 z"},"-":{"x_min":0,"x_max":300,"ha":300,"o":"m 53 169 l 53 210 l 237 210 l 237 169 z"},"E":{"x_min":0,"x_max":571,"ha":571,"o":"m 35 40 l 107 40 l 107 660 l 35 660 l 35 700 l 522 700 l 522 546 l 482 546 l 482 660 l 148 660 l 148 373 l 483 373 l 483 333 l 148 333 l 148 40 l 496 40 l 496 154 l 536 154 l 536 0 l 35 0 z"},"s":{"x_min":0,"x_max":322,"ha":322,"o":"m 90 103 l 90 52 q 108 39 130 36 q 151 33 172 33 q 181 33 194 36 q 207 40 219 48 q 231 57 240 70 q 249 83 249 102 q 249 128 236 142 q 223 156 202 164 q 182 173 158 180 q 134 186 114 197 q 93 208 79 226 q 65 244 65 277 q 65 303 75 322 q 85 342 100 355 q 116 368 136 374 q 155 381 173 381 q 177 381 190 380 q 202 379 218 376 q 234 372 250 365 q 265 358 276 346 l 276 272 l 238 272 l 238 325 q 231 331 221 334 q 211 337 202 338 q 192 340 184 340 q 177 340 174 340 q 162 340 150 336 q 138 333 128 326 q 118 318 112 306 q 107 295 107 278 q 107 256 121 244 q 135 231 156 222 q 176 214 200 206 q 223 199 244 187 q 264 175 278 156 q 291 137 291 105 q 291 88 284 68 q 278 49 264 32 q 250 15 226 4 q 203 -8 170 -8 q 160 -8 144 -6 q 129 -5 112 -1 q 95 3 79 10 q 63 17 52 29 l 52 103 z"},">":{"x_min":0,"x_max":650,"ha":650,"o":"m 115 -15 l 115 40 q 202 90 288 139 q 373 188 459 238 q 373 288 288 337 q 202 386 115 436 l 115 491 q 225 428 334 364 q 443 301 553 238 q 443 175 334 112 q 225 48 115 -15 z"},"l":{"x_min":0,"x_max":263,"ha":263,"o":"m 35 40 l 109 40 l 109 710 l 38 710 l 38 750 l 150 750 l 150 40 l 228 40 l 228 0 l 35 0 z"},"8":{"x_min":0,"x_max":510,"ha":510,"o":"m 145 506 q 145 485 154 466 q 162 448 177 435 q 192 422 212 414 q 231 407 254 407 q 300 407 330 435 q 361 463 361 506 q 361 528 353 548 q 345 568 330 584 q 316 599 296 608 q 277 617 254 617 q 231 617 212 608 q 192 599 177 584 q 162 568 154 548 q 145 528 145 506 z m 89 201 q 89 167 102 136 q 114 106 136 82 q 159 59 188 46 q 218 32 253 32 q 288 32 319 46 q 350 59 373 82 q 396 106 410 136 q 423 167 423 201 q 423 235 410 264 q 396 294 374 316 q 351 339 320 352 q 289 366 255 366 q 220 366 190 353 q 159 340 136 318 q 114 295 102 265 q 89 235 89 201 z m 46 201 q 46 267 83 318 q 120 368 178 390 q 144 406 124 438 q 103 470 103 510 q 103 540 114 567 q 126 594 146 614 q 167 635 194 646 q 221 658 252 658 q 283 658 311 646 q 339 634 359 614 q 379 593 391 566 q 403 539 403 508 q 403 469 382 438 q 362 407 330 390 q 359 379 384 360 q 409 342 427 318 q 445 293 455 264 q 465 234 465 201 q 465 158 448 120 q 431 82 402 54 q 374 25 336 8 q 297 -8 254 -8 q 211 -8 174 8 q 136 25 108 54 q 79 82 62 120 q 46 158 46 201 z"},"\\":{"x_min":0,"x_max":346,"ha":346,"o":"m 56 736 q 126 546 195 358 q 264 171 334 -19 l 288 -19 q 218 171 149 358 q 80 546 10 736 z"},"e":{"x_min":0,"x_max":441,"ha":441,"o":"m 231 343 q 194 343 164 328 q 133 312 112 286 q 91 261 82 228 q 74 194 81 159 q 148 186 215 212 q 282 239 350 266 q 333 300 301 322 q 269 343 231 343 z m 403 243 q 325 212 248 182 q 171 151 93 120 q 110 82 147 58 q 184 34 231 34 q 262 34 289 45 q 316 56 336 76 q 343 68 349 60 q 355 53 362 45 q 336 21 303 7 q 270 -7 231 -7 q 190 -7 154 8 q 119 24 92 50 q 66 76 50 112 q 35 147 35 188 q 35 228 50 264 q 66 300 92 326 q 119 352 154 368 q 190 383 231 383 q 261 383 288 372 q 315 362 338 344 q 360 325 377 300 q 394 274 403 243 z"},"b":{"x_min":0,"x_max":538,"ha":538,"o":"m 35 40 l 109 40 l 109 710 l 39 710 l 39 750 l 151 750 l 151 337 q 150 325 149 312 q 148 300 147 288 q 154 306 168 323 q 183 340 204 354 q 225 367 251 375 q 277 383 306 383 q 347 383 383 368 q 419 352 446 326 q 472 299 488 264 q 503 228 503 188 q 503 147 488 112 q 472 76 446 50 q 419 24 383 8 q 347 -7 306 -7 q 276 -7 250 1 q 223 9 202 22 q 182 35 168 52 q 153 69 146 86 q 146 75 146 64 q 147 52 147 40 l 147 0 l 35 0 z m 461 188 q 461 220 449 248 q 437 277 416 298 q 396 319 368 331 q 339 343 306 343 q 273 343 245 331 q 217 319 196 298 q 175 277 163 248 q 151 220 151 188 q 151 156 163 128 q 175 100 196 79 q 217 58 245 46 q 273 34 306 34 q 339 34 368 46 q 396 58 416 79 q 437 100 449 128 q 461 156 461 188 z"},"%":{"x_min":0,"x_max":726,"ha":726,"o":"m 447 112 q 447 80 468 58 q 490 37 522 37 q 554 37 576 58 q 597 80 597 112 q 597 143 576 165 q 554 187 522 187 q 490 187 468 165 q 447 143 447 112 z m 522 -4 q 498 -4 476 5 q 455 14 440 30 q 424 45 414 66 q 405 88 405 112 q 405 136 414 157 q 424 178 440 194 q 455 209 476 218 q 498 227 522 227 q 546 227 567 218 q 588 209 604 194 q 620 178 630 157 q 639 136 639 112 q 639 88 630 66 q 620 45 604 30 q 588 14 567 5 q 546 -4 522 -4 z m 143 388 q 143 357 164 336 q 186 314 218 314 q 250 314 272 336 q 293 357 293 388 q 293 420 272 442 q 250 463 218 463 q 186 463 164 442 q 143 420 143 388 z m 218 273 q 194 273 172 282 q 151 291 136 306 q 120 322 110 344 q 101 365 101 389 q 101 413 110 434 q 120 455 136 470 q 151 486 172 495 q 194 504 218 504 q 242 504 263 495 q 284 486 300 470 q 316 455 326 434 q 335 413 335 389 q 335 365 326 344 q 316 322 300 306 q 284 291 263 282 q 242 273 218 273 z m 194 0 q 269 126 343 250 q 417 374 492 500 l 538 500 q 463 374 389 250 q 315 126 240 0 z"},"m":{"x_min":0,"x_max":828,"ha":828,"o":"m 600 40 l 678 40 l 678 260 q 676 292 654 316 q 633 340 591 342 q 561 342 533 332 q 505 322 484 304 q 463 286 450 262 q 438 237 437 208 l 437 40 l 511 40 l 511 0 l 317 0 l 317 40 l 395 40 l 395 260 q 393 292 372 316 q 350 340 308 342 q 278 342 250 332 q 222 321 200 303 q 179 285 166 260 q 154 235 154 205 l 154 40 l 228 40 l 228 0 l 35 0 l 35 40 l 113 40 l 113 335 l 41 335 l 41 375 l 147 375 l 148 340 q 149 323 150 309 q 151 295 151 278 q 172 326 216 354 q 259 382 316 383 q 367 383 398 356 q 430 328 436 283 q 457 328 500 355 q 543 382 598 383 q 653 383 685 352 q 717 321 719 271 l 719 40 l 793 40 l 793 0 l 600 0 z"},"#":{"x_min":0,"x_max":571,"ha":571,"o":"m 198 393 q 194 357 190 322 q 186 286 182 251 l 324 251 q 328 286 332 322 q 336 357 340 393 z m 294 0 l 318 210 l 176 210 l 152 0 l 110 0 l 134 210 l 27 210 q 29 221 30 230 q 31 240 32 251 l 140 251 q 144 286 148 322 q 152 357 156 393 l 50 393 q 52 403 52 413 q 53 423 54 433 l 161 433 q 168 486 174 538 q 180 590 187 643 l 229 643 q 222 590 216 538 q 210 486 203 433 l 345 433 q 352 486 358 538 q 364 590 371 643 l 413 643 q 406 590 400 538 q 394 486 387 433 l 510 433 q 508 423 508 413 q 507 403 506 393 l 382 393 q 378 357 374 322 q 370 286 366 251 l 487 251 q 486 240 485 230 q 484 221 483 210 l 360 210 l 336 0 z"},",":{"x_min":0,"x_max":200,"ha":200,"o":"m 141 86 q 119 34 98 -17 q 77 -68 55 -120 l 17 -120 q 37 -68 56 -17 q 74 34 94 86 z"},"n":{"x_min":0,"x_max":545,"ha":545,"o":"m 317 40 l 395 40 l 395 260 q 393 292 372 316 q 350 340 308 342 q 278 342 250 332 q 222 321 200 303 q 179 285 166 260 q 154 235 154 205 l 154 40 l 228 40 l 228 0 l 35 0 l 35 40 l 113 40 l 113 335 l 41 335 l 41 375 l 147 375 l 148 340 q 149 323 150 309 q 151 295 151 278 q 171 325 216 354 q 260 383 316 383 q 371 383 403 352 q 435 321 437 271 l 437 40 l 510 40 l 510 0 l 317 0 z"},"h":{"x_min":0,"x_max":545,"ha":545,"o":"m 317 40 l 395 40 l 395 260 q 393 292 372 316 q 350 340 308 342 q 278 342 250 332 q 222 321 200 303 q 179 285 166 260 q 154 235 154 205 l 154 40 l 228 40 l 228 0 l 35 0 l 35 40 l 113 40 l 113 710 l 39 710 l 39 750 l 154 750 l 154 323 l 151 278 q 172 326 216 354 q 259 381 316 383 q 371 383 403 352 q 435 321 437 271 l 437 40 l 510 40 l 510 0 l 317 0 z"},"z":{"x_min":0,"x_max":431,"ha":431,"o":"m 396 94 l 396 0 l 35 0 l 35 41 q 110 116 177 188 q 244 260 319 335 l 47 335 l 47 410 l 85 410 l 85 375 l 377 375 l 377 334 q 302 259 235 188 q 168 116 93 41 l 358 41 l 358 94 z"},"B":{"x_min":0,"x_max":526,"ha":526,"o":"m 35 40 l 96 40 l 96 660 l 35 660 l 35 700 l 256 700 q 303 700 342 690 q 380 680 408 659 q 435 638 450 604 q 465 571 465 525 q 465 463 434 416 q 404 369 341 352 q 371 346 398 332 q 425 318 446 296 q 466 274 478 245 q 491 216 491 180 q 491 135 473 102 q 455 68 424 46 q 394 23 355 12 q 316 0 274 0 l 35 0 z m 137 332 l 137 40 l 270 40 q 307 40 340 49 q 372 58 396 76 q 421 94 436 120 q 450 147 450 183 q 450 222 434 250 q 417 278 390 296 q 362 315 326 324 q 291 332 253 332 z m 137 660 l 137 372 l 269 372 q 340 372 382 414 q 424 455 424 522 q 424 559 412 586 q 401 612 380 628 q 359 645 330 652 q 300 660 265 660 z"},"K":{"x_min":0,"x_max":686,"ha":686,"o":"m 458 40 l 518 40 q 449 128 380 216 q 310 305 240 394 l 153 311 q 153 243 154 176 q 154 108 154 40 l 236 40 l 236 0 l 35 0 l 35 40 l 112 40 l 112 660 l 35 660 l 35 700 l 228 700 l 228 660 l 154 660 l 154 386 q 153 378 152 371 q 152 364 152 356 l 170 377 l 466 660 l 413 660 l 413 700 l 606 700 l 606 660 l 520 660 l 269 421 q 344 325 419 230 q 494 135 569 40 l 651 40 l 651 0 l 458 0 z"},"R":{"x_min":0,"x_max":572,"ha":572,"o":"m 35 40 l 96 40 l 96 660 l 35 660 l 35 700 l 246 700 q 277 700 314 690 q 351 680 384 658 q 416 636 438 601 q 460 566 460 517 q 460 445 422 398 q 383 350 310 335 l 449 40 l 537 40 l 537 0 l 423 0 l 267 331 q 256 330 244 330 q 232 329 221 329 l 137 329 l 137 40 l 236 40 l 236 0 l 35 0 z m 137 370 l 241 370 q 293 370 328 384 q 362 398 382 420 q 403 442 411 468 q 419 493 419 517 q 419 545 406 571 q 392 597 368 617 q 344 637 312 648 q 279 660 242 660 l 137 660 z"},"T":{"x_min":0,"x_max":623,"ha":623,"o":"m 209 40 l 291 40 l 291 660 l 75 660 l 75 546 l 35 546 l 35 700 l 588 700 l 588 546 l 548 546 l 548 660 l 332 660 l 332 40 l 410 40 l 410 0 l 209 0 z"},"P":{"x_min":0,"x_max":495,"ha":495,"o":"m 35 40 l 96 40 l 96 660 l 35 660 l 35 700 l 246 700 q 277 700 314 690 q 351 680 384 658 q 416 636 438 601 q 460 566 460 517 q 460 431 406 380 q 351 329 248 329 l 137 329 l 137 40 l 236 40 l 236 0 l 35 0 z m 137 370 l 241 370 q 293 370 328 384 q 362 398 382 420 q 403 442 411 468 q 419 493 419 517 q 419 545 406 571 q 392 597 368 617 q 344 637 312 648 q 279 660 242 660 l 137 660 z"},"|":{"x_min":0,"x_max":240,"ha":240,"o":"m 96 -232 l 96 700 l 138 700 l 138 -232 z"},"t":{"x_min":0,"x_max":314,"ha":314,"o":"m 122 619 l 164 619 l 164 375 l 279 375 l 279 334 l 164 334 l 164 40 l 246 40 l 246 0 l 122 0 l 122 334 l 35 334 l 35 375 l 122 375 z"},"M":{"x_min":0,"x_max":967,"ha":967,"o":"m 824 700 l 929 700 l 929 660 l 848 660 l 848 40 l 932 40 l 932 0 l 731 0 l 731 40 l 806 40 l 806 575 q 806 576 806 582 q 807 588 808 594 q 808 601 808 607 q 808 613 808 615 q 805 610 800 604 q 796 597 790 589 q 768 559 730 510 q 693 461 650 405 q 607 349 562 292 q 518 234 482 187 q 413 277 365 340 q 317 403 282 450 q 246 496 220 530 q 193 564 168 596 l 156 615 q 156 604 156 594 q 157 585 158 575 l 158 40 l 236 40 l 236 0 l 35 0 l 35 40 l 116 40 l 116 660 l 35 660 l 35 700 l 140 700 q 151 685 173 656 q 195 628 224 591 q 252 554 285 510 q 318 467 352 422 q 387 378 420 335 q 454 292 482 255 q 568 366 653 478 q 738 589 824 700 z"},"g":{"x_min":0,"x_max":539,"ha":539,"o":"m 395 375 l 504 375 l 504 335 l 429 335 l 429 -35 q 429 -84 414 -124 q 399 -163 373 -191 q 347 -219 312 -234 q 278 -249 238 -250 q 196 -249 154 -234 q 111 -219 84 -190 l 114 -159 q 136 -183 170 -195 q 204 -207 237 -207 q 268 -207 296 -194 q 323 -182 343 -159 q 363 -136 375 -104 q 387 -71 387 -32 l 387 40 q 388 51 389 62 q 390 74 391 85 q 383 67 368 50 q 354 34 334 22 q 313 9 287 1 q 261 -7 232 -7 q 191 -7 155 8 q 119 24 92 50 q 66 76 50 112 q 35 147 35 188 q 35 228 50 264 q 66 299 92 326 q 119 352 155 368 q 191 383 232 383 q 261 383 287 374 q 313 366 334 352 q 355 339 370 322 q 384 304 391 287 q 391 309 392 331 q 394 353 395 375 z m 77 188 q 77 156 89 128 q 101 100 122 79 q 142 58 170 46 q 199 34 232 34 q 265 34 293 46 q 321 58 342 79 q 363 100 375 128 q 387 156 387 188 q 387 220 375 248 q 363 277 342 298 q 321 319 293 331 q 265 343 232 343 q 199 343 170 331 q 142 319 122 298 q 101 277 89 248 q 77 220 77 188 z"},"j":{"x_min":0,"x_max":184,"ha":184,"o":"m 35 375 l 149 375 l 149 -4 q 149 -63 132 -107 q 114 -151 83 -180 l 53 -150 q 79 -125 94 -89 q 108 -53 108 -5 l 108 335 l 35 335 z m 97 508 q 97 522 107 532 q 117 541 130 541 q 143 541 152 532 q 162 522 162 508 q 162 494 152 484 q 143 475 130 475 q 117 475 107 484 q 97 494 97 508 z"},"i":{"x_min":0,"x_max":263,"ha":263,"o":"m 35 40 l 112 40 l 112 335 l 35 335 l 35 375 l 154 375 l 154 40 l 228 40 l 228 0 l 35 0 z m 101 508 q 101 522 111 532 q 121 541 134 541 q 146 541 156 532 q 166 522 166 508 q 166 494 156 484 q 146 475 134 475 q 121 475 111 484 q 101 494 101 508 z"},"y":{"x_min":0,"x_max":601,"ha":601,"o":"m 92 -210 l 177 -210 q 203 -158 229 -106 q 255 -53 281 -2 q 238 83 196 166 q 154 250 112 335 l 35 335 l 35 375 l 220 375 l 220 335 l 157 335 q 194 260 232 186 q 269 113 303 38 q 335 110 373 185 q 411 260 449 335 l 391 335 l 391 375 l 566 375 l 566 335 l 493 335 q 424 198 357 62 q 290 -73 221 -210 l 285 -210 l 285 -250 l 92 -250 z"},"@":{"x_min":0,"x_max":990,"ha":990,"o":"m 333 188 q 333 156 345 128 q 357 100 378 79 q 398 58 426 46 q 455 34 488 34 q 521 34 550 46 q 578 58 598 79 q 619 100 631 128 q 643 156 643 188 q 643 220 631 248 q 619 277 598 298 q 578 319 550 331 q 521 343 488 343 q 455 343 426 331 q 398 319 378 298 q 357 277 345 248 q 333 220 333 188 z m 895 188 q 892 131 877 94 q 862 58 840 37 q 817 16 790 8 q 763 0 737 0 l 647 0 l 647 40 q 647 52 648 64 q 648 75 648 86 q 641 69 626 52 q 612 35 592 22 q 571 9 544 1 q 518 -7 488 -7 q 447 -7 411 8 q 375 24 348 50 q 322 76 306 112 q 291 147 291 188 q 291 228 306 264 q 322 299 348 326 q 375 352 411 368 q 447 383 488 383 q 517 383 542 374 q 568 366 589 352 q 610 339 625 322 q 640 305 647 287 q 647 309 648 331 q 650 353 651 375 l 685 375 l 685 40 l 741 40 q 789 40 820 75 q 851 110 853 188 q 853 264 824 331 q 796 398 746 448 q 697 497 630 526 q 564 554 489 554 q 413 554 346 526 q 280 497 230 448 q 181 398 152 331 q 124 264 124 188 q 124 112 152 46 q 181 -20 230 -70 q 280 -119 346 -148 q 413 -176 489 -176 q 549 -176 604 -158 q 658 -140 704 -108 q 711 -116 717 -123 q 723 -130 729 -138 q 679 -176 617 -196 q 555 -217 489 -217 q 405 -217 331 -185 q 257 -153 202 -98 q 146 -43 114 31 q 82 105 82 189 q 82 273 114 347 q 146 421 202 476 q 257 531 331 563 q 405 595 489 595 q 573 595 647 563 q 721 531 776 476 q 831 421 863 347 q 895 273 895 188 z"},".":{"x_min":0,"x_max":163,"ha":163,"o":"m 53 33 q 53 47 63 56 q 73 66 86 66 q 98 66 108 56 q 118 47 118 33 q 118 19 108 10 q 98 0 86 0 q 73 0 63 10 q 53 19 53 33 z"},"p":{"x_min":0,"x_max":538,"ha":538,"o":"m 43 -210 l 110 -210 l 110 335 l 35 335 l 35 375 l 143 375 q 143 353 144 330 q 146 307 147 285 q 154 303 168 320 q 183 338 204 352 q 225 365 252 374 q 278 382 307 382 q 348 382 384 366 q 420 351 446 325 q 473 299 488 263 q 503 227 503 187 q 503 147 488 112 q 473 76 446 50 q 420 23 384 8 q 348 -8 307 -8 q 277 -8 251 0 q 225 8 204 20 q 184 33 170 50 q 155 66 148 84 q 149 74 150 64 q 151 54 152 44 l 152 -210 l 236 -210 l 236 -250 l 43 -250 z m 461 187 q 461 220 449 248 q 437 276 416 296 q 396 317 368 329 q 340 341 307 341 q 274 341 246 329 q 217 317 196 296 q 175 276 163 248 q 151 220 151 187 q 151 155 163 126 q 175 98 196 77 q 217 56 246 44 q 274 32 307 32 q 340 32 368 44 q 396 56 416 77 q 437 98 449 126 q 461 155 461 187 z"},"X":{"x_min":0,"x_max":704,"ha":704,"o":"m 35 700 l 236 700 l 236 660 l 179 660 q 221 597 262 534 q 302 471 343 408 l 353 390 l 363 408 l 525 660 l 467 660 l 467 700 l 669 700 l 669 660 l 575 660 q 526 582 477 506 q 428 431 378 354 q 429 275 480 197 q 532 119 583 40 l 669 40 l 669 0 l 467 0 l 467 40 l 531 40 l 381 271 q 373 283 365 297 q 357 311 349 323 l 339 304 q 296 237 254 172 q 211 106 169 40 l 236 40 l 236 0 l 35 0 l 35 40 l 118 40 l 324 359 l 128 660 l 35 660 z"},"*":{"x_min":0,"x_max":335,"ha":335,"o":"m 209 575 q 232 562 256 549 q 279 536 302 522 q 296 513 290 504 q 285 494 279 484 q 256 498 234 511 q 211 524 188 538 q 187 512 187 486 q 187 460 186 434 l 146 434 l 146 538 q 123 525 101 512 q 79 500 56 486 q 50 496 44 506 q 39 515 33 525 q 56 538 79 550 q 102 563 125 576 q 102 590 80 603 q 57 616 34 630 q 42 647 54 665 q 77 651 100 638 q 123 625 146 611 l 146 720 l 190 720 q 190 693 190 666 q 189 639 189 611 q 212 625 236 638 q 260 651 283 664 q 288 656 293 647 q 298 638 303 629 q 279 615 256 602 q 233 589 209 575 z"},"Y":{"x_min":0,"x_max":746,"ha":746,"o":"m 275 40 l 349 40 l 349 265 q 289 364 230 462 q 172 561 113 660 l 35 660 l 35 700 l 236 700 l 236 660 l 163 660 q 263 495 361 330 l 373 302 l 374 302 l 385 330 l 582 660 l 510 660 l 510 700 l 711 700 l 711 660 l 633 660 q 574 560 516 462 q 457 364 398 265 l 398 40 l 476 40 l 476 0 l 275 0 z"},"c":{"x_min":0,"x_max":391,"ha":391,"o":"m 355 36 q 329 16 298 4 q 267 -7 231 -7 q 190 -7 154 8 q 119 24 92 50 q 66 76 50 112 q 35 147 35 188 q 35 228 50 264 q 66 300 92 326 q 119 352 154 368 q 190 383 231 383 q 267 383 299 372 q 331 360 356 340 l 356 242 l 318 242 l 318 316 q 299 329 278 336 q 256 343 231 343 q 198 343 170 331 q 142 319 122 298 q 101 277 89 248 q 77 220 77 188 q 77 156 89 128 q 101 100 122 79 q 142 58 170 46 q 198 34 231 34 q 288 34 329 67 z"},"!":{"x_min":0,"x_max":201,"ha":201,"o":"m 100 22 q 88 22 78 32 q 68 41 68 55 q 68 69 78 78 q 88 88 100 88 q 112 88 122 78 q 132 69 132 55 q 132 41 122 32 q 112 22 100 22 z m 79 750 l 121 750 l 121 166 l 79 166 z"},"/":{"x_min":0,"x_max":345,"ha":345,"o":"m 17 -19 q 87 171 156 358 q 225 546 295 736 l 337 736 q 267 546 198 358 q 129 171 59 -19 z"},"[":{"x_min":0,"x_max":338,"ha":338,"o":"m 83 -149 l 83 746 l 258 746 l 258 705 l 126 705 l 126 -108 l 258 -108 l 258 -149 z"},"6":{"x_min":0,"x_max":520,"ha":520,"o":"m 91 199 q 91 164 104 134 q 117 104 140 82 q 163 59 193 46 q 223 33 258 33 q 292 33 323 46 q 354 59 377 82 q 400 104 414 134 q 427 164 427 199 q 427 233 414 264 q 400 294 377 317 q 354 340 323 353 q 292 366 258 366 q 223 366 193 353 q 163 340 140 317 q 117 294 104 264 q 91 233 91 199 z m 49 195 q 49 267 80 330 q 111 392 159 446 q 207 501 266 548 q 325 594 381 635 q 387 627 394 618 q 401 609 408 601 q 301 531 240 468 q 179 404 152 358 q 171 380 198 394 q 226 407 258 407 q 301 407 340 390 q 378 374 406 346 q 435 318 452 280 q 468 242 468 199 q 468 156 452 118 q 435 81 406 53 q 378 25 340 8 q 301 -8 258 -8 q 216 -8 178 8 q 140 24 112 52 q 83 79 66 116 q 50 153 49 195 z"},"r":{"x_min":0,"x_max":344,"ha":344,"o":"m 35 40 l 113 40 l 113 335 l 41 335 l 41 375 l 147 375 l 148 340 q 149 323 150 309 q 151 295 151 278 q 174 327 218 354 q 263 382 309 383 l 306 342 q 274 341 246 330 q 219 320 198 302 q 178 284 166 259 q 154 234 154 205 l 154 40 l 228 40 l 228 0 l 35 0 z"},"2":{"x_min":0,"x_max":505,"ha":505,"o":"m 155 41 l 428 41 l 428 146 l 468 146 l 468 0 l 53 0 q 116 62 176 122 q 235 181 281 238 q 327 294 355 346 q 383 399 383 446 q 383 495 368 528 q 354 560 332 580 q 311 600 286 608 q 260 617 238 617 q 193 617 164 601 q 136 585 120 562 q 103 539 96 512 q 90 485 90 463 q 90 428 100 401 q 110 374 129 353 l 104 328 q 78 351 63 388 q 48 424 48 463 q 48 503 60 538 q 73 574 97 600 q 121 627 156 642 q 192 658 238 658 q 280 658 314 642 q 349 627 374 600 q 398 573 412 536 q 425 500 425 458 q 425 404 400 350 q 376 297 337 245 q 298 193 250 142 q 202 91 155 41 z"},"{":{"x_min":0,"x_max":291,"ha":291,"o":"m 30 275 l 30 321 q 54 322 70 336 q 85 349 94 369 q 103 389 106 412 q 109 436 109 456 l 109 628 q 109 674 117 698 q 125 722 139 732 q 153 743 170 744 q 188 746 208 746 l 255 746 l 255 705 l 203 705 q 172 705 162 682 q 151 658 151 597 l 151 455 q 151 414 145 388 q 139 361 130 344 q 121 326 110 316 q 98 306 86 299 q 98 292 110 282 q 121 271 130 253 q 139 235 145 208 q 151 182 151 142 l 151 1 q 151 -61 162 -84 q 172 -108 203 -108 l 255 -108 l 255 -148 l 208 -148 q 187 -148 168 -146 q 150 -145 137 -132 q 124 -120 116 -92 q 109 -63 109 -9 l 109 140 q 109 160 106 184 q 103 207 94 227 q 85 247 70 260 q 54 274 30 275 z"},"9":{"x_min":0,"x_max":525,"ha":525,"o":"m 420 427 q 420 461 407 492 q 394 522 372 544 q 349 567 318 580 q 288 593 254 593 q 219 593 188 580 q 158 567 135 544 q 112 522 98 492 q 85 461 85 427 q 85 392 98 362 q 112 332 135 309 q 158 286 188 273 q 219 260 254 260 q 288 260 318 273 q 349 286 372 309 q 394 332 407 362 q 420 392 420 427 z m 463 427 q 463 356 432 294 q 401 232 352 178 q 304 124 245 78 q 186 32 131 -8 q 124 0 118 8 q 111 17 104 25 q 210 96 272 159 q 333 222 360 269 q 341 246 313 233 q 285 220 253 220 q 210 220 172 236 q 133 252 104 280 q 76 308 60 346 q 43 384 43 427 q 43 470 60 508 q 76 545 104 573 q 133 601 172 618 q 210 634 253 634 q 296 634 334 618 q 373 601 402 573 q 430 545 446 508 q 463 470 463 427 z"}," ":{"x_min":0,"x_max":300,"ha":300,"o":""},"I":{"x_min":0,"x_max":271,"ha":271,"o":"m 35 40 l 113 40 l 113 660 l 35 660 l 35 700 l 236 700 l 236 660 l 154 660 l 154 40 l 236 40 l 236 0 l 35 0 z"},"H":{"x_min":0,"x_max":738,"ha":738,"o":"m 502 700 l 703 700 l 703 660 l 626 660 l 626 40 l 703 40 l 703 0 l 502 0 l 502 40 l 584 40 l 584 333 l 154 333 l 154 40 l 236 40 l 236 0 l 35 0 l 35 40 l 113 40 l 113 660 l 35 660 l 35 700 l 236 700 l 236 660 l 154 660 l 154 373 l 584 373 l 584 660 l 502 660 z"},"4":{"x_min":0,"x_max":515,"ha":515,"o":"m 285 40 l 361 40 l 361 183 l 37 183 l 403 658 l 403 224 l 500 224 l 500 183 l 403 183 l 403 40 l 486 40 l 486 0 l 285 0 z m 361 535 l 122 224 l 361 224 z"},"~":{"x_min":0,"x_max":489,"ha":489,"o":"m 267 491 q 252 508 240 514 q 228 519 214 519 q 206 519 196 517 q 187 515 178 510 q 169 504 162 494 q 155 484 153 468 q 147 469 140 469 q 134 469 128 470 q 129 489 137 503 q 145 517 157 526 q 169 536 184 540 q 199 545 213 545 q 234 545 252 536 q 269 526 285 509 q 301 492 313 486 q 325 481 339 481 q 346 481 356 483 q 366 485 375 490 q 384 496 390 506 q 397 516 399 532 q 406 531 412 531 q 419 531 425 530 q 424 511 416 497 q 408 483 396 474 q 384 464 369 460 q 354 455 340 455 q 319 455 302 464 q 284 474 267 491 z"},"D":{"x_min":0,"x_max":632,"ha":632,"o":"m 35 40 l 98 40 l 98 660 l 35 660 l 35 700 l 245 700 q 317 700 381 676 q 445 651 493 606 q 541 560 569 495 q 597 430 597 350 q 597 291 576 229 q 556 167 510 116 q 464 65 390 32 q 317 0 211 0 l 35 0 z m 139 660 l 139 40 l 226 40 q 309 40 371 66 q 433 93 474 136 q 515 180 536 236 q 556 291 556 350 q 556 421 532 478 q 507 536 464 576 q 422 617 366 638 q 309 660 245 660 z"},"^":{"x_min":0,"x_max":470,"ha":470,"o":"m 232 660 q 262 615 292 570 q 322 524 352 479 l 319 479 q 297 509 276 540 q 254 570 232 600 q 210 570 188 540 q 167 509 145 479 l 112 479 q 142 524 172 570 q 202 615 232 660 z"},"0":{"x_min":0,"x_max":616,"ha":616,"o":"m 36 327 q 36 386 54 446 q 71 505 104 552 q 138 599 189 628 q 240 658 308 658 q 375 658 425 628 q 475 598 508 550 q 541 502 557 442 q 573 383 573 324 q 573 252 550 191 q 528 130 490 86 q 453 42 404 18 q 355 -7 302 -7 q 249 -7 200 18 q 152 44 116 88 q 79 133 58 194 q 36 255 36 327 z m 79 327 q 79 262 98 208 q 116 154 147 116 q 178 77 218 55 q 259 33 303 33 q 347 33 388 54 q 429 75 460 113 q 492 151 512 204 q 531 258 531 323 q 531 382 516 435 q 501 488 472 528 q 443 569 401 593 q 359 617 307 617 q 254 617 212 594 q 170 571 140 531 q 111 491 95 438 q 79 385 79 327 z"},"F":{"x_min":0,"x_max":557,"ha":557,"o":"m 35 40 l 107 40 l 107 660 l 35 660 l 35 700 l 522 700 l 522 546 l 482 546 l 482 660 l 148 660 l 148 373 l 483 373 l 483 333 l 148 333 l 148 40 l 236 40 l 236 0 l 35 0 z"},"`":{"x_min":0,"x_max":200,"ha":200,"o":"m 14 612 q 37 579 59 546 q 81 512 104 479 l 71 479 q 46 512 21 546 q -4 579 -29 612 z"},"k":{"x_min":0,"x_max":503,"ha":503,"o":"m 283 40 l 331 40 q 302 80 272 120 q 243 159 214 199 l 150 139 l 150 40 l 228 40 l 228 0 l 35 0 l 35 40 l 109 40 l 109 710 l 38 710 l 38 750 l 150 750 l 150 190 l 305 335 l 245 335 l 245 375 l 430 375 l 430 335 l 358 335 q 327 306 302 281 q 276 256 245 227 q 278 179 312 133 q 346 87 381 40 l 468 40 l 468 0 l 283 0 z"},"u":{"x_min":0,"x_max":539,"ha":539,"o":"m 35 375 l 150 375 l 150 115 q 152 83 174 59 q 195 35 237 33 q 268 33 296 44 q 324 54 345 72 q 366 90 378 115 q 391 140 391 170 l 391 335 l 317 335 l 317 375 l 433 375 l 433 36 l 504 36 l 504 0 l 396 0 l 394 52 l 394 97 q 374 49 330 20 q 285 -8 230 -8 q 175 -8 143 23 q 111 54 109 104 l 109 335 l 35 335 z"},"]":{"x_min":0,"x_max":342,"ha":342,"o":"m 251 746 l 251 -149 l 76 -149 l 76 -108 l 208 -108 l 208 705 l 76 705 l 76 746 z"},"U":{"x_min":0,"x_max":696,"ha":696,"o":"m 35 700 l 236 700 l 236 660 l 154 660 l 154 229 q 154 181 168 144 q 183 108 208 83 q 234 58 270 45 q 305 32 348 32 q 390 32 426 45 q 461 58 487 83 q 513 108 528 144 q 542 181 542 229 l 542 660 l 460 660 l 460 700 l 661 700 l 661 660 l 584 660 l 584 226 q 584 169 566 125 q 548 81 516 52 q 484 22 441 7 q 398 -8 348 -8 q 297 -8 254 7 q 211 22 180 52 q 148 81 130 125 q 112 169 112 226 l 112 660 l 35 660 z"},"o":{"x_min":0,"x_max":465,"ha":465,"o":"m 36 188 q 36 228 52 264 q 67 300 94 326 q 120 353 156 368 q 191 384 232 384 q 273 384 309 368 q 345 353 372 326 q 399 300 414 264 q 430 228 430 188 q 430 147 414 112 q 399 76 372 50 q 345 24 309 8 q 273 -7 232 -7 q 191 -7 156 8 q 120 24 94 50 q 67 76 52 112 q 36 147 36 188 z m 77 188 q 77 156 89 128 q 101 100 122 79 q 143 58 171 46 q 199 34 231 34 q 263 34 292 46 q 320 58 341 79 q 362 100 374 128 q 386 156 386 188 q 386 220 374 248 q 362 276 341 297 q 320 318 292 330 q 263 343 231 343 q 199 343 171 330 q 143 318 122 297 q 101 276 89 248 q 77 220 77 188 z"},"N":{"x_min":0,"x_max":846,"ha":846,"o":"m 35 40 l 116 40 l 116 660 l 35 660 l 35 700 l 143 700 l 669 88 l 688 62 l 685 94 l 685 660 l 610 660 l 610 700 l 811 700 l 811 660 l 727 660 l 727 -32 l 174 607 l 155 629 l 158 601 l 158 40 l 236 40 l 236 0 l 35 0 z"},"+":{"x_min":0,"x_max":543,"ha":543,"o":"m 245 51 l 245 211 l 86 211 l 86 252 l 245 252 l 245 411 l 287 411 l 287 252 l 446 252 l 446 211 l 287 211 l 287 51 z"},"G":{"x_min":0,"x_max":609,"ha":609,"o":"m 574 298 l 574 40 q 534 17 488 4 q 443 -10 392 -10 q 318 -10 253 18 q 188 46 140 94 q 91 143 63 208 q 35 273 35 347 q 35 421 63 486 q 91 552 140 600 q 188 649 253 678 q 318 706 392 706 q 443 706 488 693 q 534 680 575 656 l 552 622 q 517 643 476 654 q 436 666 392 666 q 327 666 270 640 q 212 615 169 572 q 126 528 102 470 q 77 412 77 346 q 77 281 102 224 q 126 166 169 123 q 212 80 268 55 q 325 30 390 30 q 466 30 532 64 l 532 258 l 388 258 l 388 298 z"},"q":{"x_min":0,"x_max":540,"ha":540,"o":"m 303 -210 l 387 -210 l 387 44 q 387 54 388 64 q 390 74 391 84 q 383 66 368 50 q 354 33 334 20 q 313 8 287 0 q 261 -8 232 -8 q 191 -8 155 8 q 119 23 92 50 q 66 76 50 112 q 35 147 35 187 q 35 227 50 263 q 66 299 92 325 q 119 351 155 366 q 191 382 232 382 q 261 382 287 374 q 313 365 334 352 q 355 338 370 320 q 385 303 392 285 q 392 307 394 330 q 395 352 395 375 l 505 375 l 505 335 l 429 335 l 429 -210 l 497 -210 l 497 -250 l 303 -250 z m 77 187 q 77 155 89 126 q 101 98 122 77 q 142 56 170 44 q 199 32 232 32 q 265 32 293 44 q 321 56 342 77 q 363 98 375 126 q 387 155 387 187 q 387 220 375 248 q 363 276 342 296 q 321 317 293 329 q 265 341 232 341 q 199 341 170 329 q 142 317 122 296 q 101 276 89 248 q 77 220 77 187 z"},"d":{"x_min":0,"x_max":538,"ha":538,"o":"m 391 40 q 391 52 392 64 q 392 75 392 86 q 385 69 370 52 q 356 35 336 22 q 315 9 288 1 q 262 -7 232 -7 q 191 -7 155 8 q 119 24 92 50 q 66 76 50 112 q 35 147 35 188 q 35 228 50 264 q 66 299 92 326 q 119 352 155 368 q 191 383 232 383 q 261 383 286 375 q 312 367 333 354 q 354 340 369 323 q 384 306 391 288 q 390 309 389 330 q 388 351 387 372 l 387 710 l 317 710 l 317 750 l 429 750 l 429 40 l 503 40 l 503 0 l 391 0 z m 77 188 q 77 156 89 128 q 101 100 122 79 q 142 58 170 46 q 199 34 232 34 q 265 34 293 46 q 321 58 342 79 q 363 100 375 128 q 387 156 387 188 q 387 220 375 248 q 363 277 342 298 q 321 319 293 331 q 265 343 232 343 q 199 343 170 331 q 142 319 122 298 q 101 277 89 248 q 77 220 77 188 z"},"1":{"x_min":0,"x_max":265,"ha":265,"o":"m 49 40 l 129 40 l 129 609 l 34 609 l 34 650 l 171 650 l 171 40 l 251 40 l 251 0 l 49 0 z"},"5":{"x_min":0,"x_max":543,"ha":543,"o":"m 430 650 l 430 549 l 390 549 l 390 609 l 185 609 l 185 392 q 201 399 218 403 q 236 407 254 407 q 297 407 336 391 q 374 375 402 347 q 431 319 448 282 q 465 244 465 201 q 465 158 448 120 q 431 82 402 54 q 374 25 336 8 q 297 -8 254 -8 q 212 -8 176 8 q 139 23 110 50 l 141 78 q 163 57 192 45 q 220 33 253 33 q 288 33 319 46 q 350 60 373 83 q 396 106 410 136 q 423 167 423 201 q 423 235 410 265 q 396 295 373 318 q 350 340 319 353 q 288 366 253 366 q 218 366 189 354 q 160 342 143 321 l 143 650 z"}}}
